<?xml version="1.0" encoding="UTF-8" standalone="no"?>
<!-- Created with Inkscape (http://www.inkscape.org/) -->

<svg
   version="1.1"
   id="svg2"
   xml:space="preserve"
   width="737.68237"
   height="728.25537"
   viewBox="0 0 737.68237 728.25537"
   xmlns="http://www.w3.org/2000/svg"
   xmlns:svg="http://www.w3.org/2000/svg"><defs
     id="defs6"><clipPath
       clipPathUnits="userSpaceOnUse"
       id="clipPath16"><path
         d="M 0,1224 H 1224 V 0 H 0 Z"
         id="path14" /></clipPath><clipPath
       clipPathUnits="userSpaceOnUse"
       id="clipPath44"><path
         d="M 610.776,756.688 C 595.76,741.673 570.112,670.977 570.112,670.977 v 0 c -3.948,-18.278 -33.784,-71.321 -33.784,-71.321 v 0 c -15.8,-15.798 -5.007,-26.277 -5.007,-26.277 v 0 l 58.183,-58.182 c 8.132,-8.133 29.404,9.385 29.404,9.385 v 0 l 56.318,27.517 c 4.299,4.915 73.597,27.752 73.597,27.752 v 0 c 24.598,13.757 58.184,58.182 58.184,58.182 v 0 c 27.936,83.422 -30.371,130.606 -30.371,130.606 v 0 c -33.71,28.842 -79.853,29.01 -79.853,29.01 v 0 c -67.27,-3.456 -86.007,-40.961 -86.007,-40.961"
         id="path42" /></clipPath><clipPath
       clipPathUnits="userSpaceOnUse"
       id="clipPath56"><path
         d="M 0,1224 H 1224 V 0 H 0 Z"
         id="path54" /></clipPath></defs><g
     id="g8"
     transform="matrix(1.3333333,0,0,-1.3333333,-447.82018,1179.7176)"><g
       id="g10"><g
         id="g12"
         clip-path="url(#clipPath16)"><g
           id="g18"
           transform="translate(587.5532,498.7505)"><path
             d="m 0,0 -76.15,76.15 c -3.149,3.148 -7.823,3.595 -10.436,0.982 l -3.145,-3.146 c -2.615,-2.614 -2.169,-7.29 0.979,-10.439 l 76.15,-76.15 c 3.151,-3.15 7.824,-3.593 10.437,-0.978 l 3.146,3.146 C 3.595,-7.821 3.149,-3.15 0,0"
             style="fill:#063857;fill-opacity:1;fill-rule:nonzero;stroke:none"
             id="path20" /></g><g
           id="g22"
           transform="translate(573.3032,484.5014)"><path
             d="m 0,0 -76.149,76.149 c -3.149,3.148 -7.828,3.591 -10.442,0.976 l -3.146,-3.145 c -2.61,-2.61 -2.163,-7.285 0.984,-10.433 l 76.151,-76.151 c 3.15,-3.15 7.823,-3.593 10.433,-0.984 l 3.146,3.147 C 3.59,-7.826 3.15,-3.15 0,0"
             style="fill:#063857;fill-opacity:1;fill-rule:nonzero;stroke:none"
             id="path24" /></g><g
           id="g26"
           transform="translate(559.0434,470.2417)"><path
             d="m 0,0 -76.15,76.149 c -3.148,3.148 -7.817,3.601 -10.433,0.985 l -3.148,-3.149 c -2.61,-2.61 -2.164,-7.283 0.986,-10.431 l 76.15,-76.15 c 3.151,-3.15 7.823,-3.595 10.432,-0.986 l 3.147,3.148 C 3.6,-7.818 3.15,-3.15 0,0"
             style="fill:#063857;fill-opacity:1;fill-rule:nonzero;stroke:none"
             id="path28" /></g><g
           id="g30"
           transform="translate(478.1655,522.626)"><path
             d="M 0,0 57.112,-57.113 C 47.659,-66.566 26.132,-57.632 12.808,-44.308 -0.52,-30.982 -9.454,-9.453 0,0"
             style="fill:#063857;fill-opacity:1;fill-rule:nonzero;stroke:none"
             id="path32" /></g><g
           id="g34"
           transform="translate(696.7827,797.6489)"><path
             d="m 0,0 c 0,0 46.143,-0.168 79.853,-29.01 0,0 58.308,-47.184 30.371,-130.605 0,0 -33.585,-44.425 -58.184,-58.182 0,0 -69.298,-22.838 -73.597,-27.753 l -56.317,-27.517 c 0,0 -21.273,-17.518 -29.404,-9.385 l -58.183,58.182 c 0,0 -10.794,10.479 5.006,26.277 0,0 29.836,53.043 33.784,71.321 0,0 25.648,70.696 40.664,85.711 0,0 18.737,37.505 86.007,40.961"
             style="fill:#3199bc;fill-opacity:1;fill-rule:nonzero;stroke:none"
             id="path36" /></g></g></g><g
       id="g38"><g
         id="g40"
         clip-path="url(#clipPath44)"><g
           id="g46"
           transform="translate(537.2502,576.6961)"><path
             d="m 0,0 c 13.469,4.341 26.378,11.017 38.895,17.524 17.903,9.308 35.54,19.566 51.635,31.78 10.908,8.276 26.467,19.983 28.964,34.515 0.955,5.557 -1.089,14.319 -6.864,16.603 -7.047,2.788 -14.024,-3.962 -17.34,-9.331 -4.655,-7.538 -7.335,-17.382 -3.601,-25.816 3.8,-8.585 11.268,-16.179 19.52,-20.535 8.142,-4.298 18.001,-4.605 25.759,0.777 6.555,4.547 12.687,14.262 8.494,22.288 -3.286,6.292 -11.083,5.809 -16.481,2.636 -9.116,-5.357 -14.425,-18.913 -14.756,-29.021 -0.307,-9.381 4.43,-18.475 14.168,-20.45 11.497,-2.332 24.407,4.433 32.547,12.037 2.19,2.045 5.879,5.767 4.522,9.171 -1.119,2.81 -5.036,3.217 -7.615,3.236 C 145.273,45.503 133.979,36.696 124.523,29.451 100.14,10.768 81.58,-13.676 61.78,-36.855 56.747,-42.747 51.601,-48.538 46.275,-54.168 c -1.475,-1.56 4.383,-1.015 5.528,0.196 16.771,17.729 31.401,37.308 47.866,55.303 8.348,9.123 17.205,17.795 26.894,25.495 4.511,3.584 9.177,6.98 14.006,10.123 4.239,2.759 10.971,6.991 16.409,5.377 10.439,-3.097 -11.66,-16.532 -14.816,-17.647 -9.105,-3.217 -18.049,0.769 -20.919,10.13 -2.952,9.632 0.87,20.909 6.293,28.969 1.725,2.563 4.711,7.004 8.287,5.807 2.532,-0.848 4.036,-3.668 4.589,-6.094 1.786,-7.829 -4.903,-18.447 -13.074,-19.171 -8.395,-0.745 -16.781,5.943 -22.139,11.687 -4.69,5.029 -9.047,11.375 -9.279,18.482 -0.241,7.414 3.278,16.568 8.661,21.726 3.022,2.896 5.042,0.982 6.844,-2.452 1.211,-2.309 2.16,-4.958 2.297,-7.586 0.247,-4.732 -1.922,-9.374 -4.436,-13.253 C 101.927,61.569 90.343,52.878 79.442,45.178 64.605,34.698 48.757,25.637 32.6,17.365 21.949,11.911 10.573,5.987 -0.636,2.374 -4.09,1.261 -3.561,-1.148 0,0"
             style="fill:#063857;fill-opacity:1;fill-rule:nonzero;stroke:none"
             id="path48" /></g></g></g><g
       id="g50"><g
         id="g52"
         clip-path="url(#clipPath56)"><g
           id="g58"
           transform="translate(725.2934,578.8061)"><path
             d="m 0,0 c -56.852,-16.258 -85.079,-31.535 -112.198,-50.914 -3.023,-2.157 -12.22,-8.725 -17.07,-8.864 -1.666,-0.047 -4.136,0.671 -9.821,6.356 l -24.09,24.089 -24.086,24.087 c -5.683,5.684 -6.404,8.153 -6.357,9.817 0.138,4.854 6.706,14.048 8.864,17.069 19.374,27.114 34.651,55.339 50.914,112.188 5.542,19.294 15.076,35.802 28.338,49.063 42.611,42.611 111.943,42.611 154.553,0.002 C 91.661,140.279 91.667,70.941 49.055,28.33 35.777,15.053 19.271,5.521 0,0 m 56.701,190.545 c -46.9,46.898 -122.951,46.907 -169.861,-10e-4 -15.44,-15.441 -25.458,-34.14 -31.085,-53.73 -16.717,-58.432 -32.294,-85.055 -49.318,-108.882 -14.267,-19.971 -14.285,-27.902 -1.355,-40.833 5.499,-5.498 14.506,-14.505 24.087,-24.086 9.583,-9.583 18.592,-18.592 24.089,-24.089 12.938,-12.938 20.872,-12.902 40.832,1.354 23.827,17.025 50.455,32.605 108.886,49.317 19.591,5.613 38.292,15.641 53.732,31.081 46.908,46.91 46.899,122.964 -0.007,169.869"
             style="fill:#ffffff;fill-opacity:1;fill-rule:nonzero;stroke:none"
             id="path60" /></g><g
           id="g62"
           transform="translate(412.2846,345.6557)"><path
             d="m 0,0 c -1.045,-0.578 -2.286,-0.578 -3.239,0.09 -0.946,0.572 -1.617,1.717 -1.617,2.859 0,9.522 2.379,18.194 5.619,25.526 C -41.625,-6.478 -71.73,-7.059 -73.162,-7.059 h -0.184 c -1.051,0.1 -2.004,0.672 -2.576,1.526 -0.572,0.959 -0.671,2.195 -0.191,3.246 8.102,16.281 28.103,39.527 42.584,55.344 -12.668,-5.145 -25.243,-7.721 -26.097,-7.905 -1.243,-0.291 -2.485,0.184 -3.339,1.235 -0.763,1.051 -0.853,2.379 -0.289,3.521 39.252,79.069 97.644,86.494 100.121,86.783 0.953,0.092 1.997,-0.191 2.667,-0.953 l 4.483,-4.474 c -7.722,-4.573 -17.151,-12.957 -24.772,-28.293 -0.19,-0.381 -0.19,-0.953 0.092,-1.334 0.289,-0.381 0.763,-0.571 1.243,-0.479 0.282,0.098 5.144,1.051 10.098,3.049 -5.624,-6.098 -13.337,-15.144 -16.48,-21.434 -0.196,-0.38 -0.196,-0.853 0.093,-1.234 0.19,-0.381 0.572,-0.578 0.952,-0.578 h 0.1 c 0.564,0 12.188,0.197 28.674,13.816 -1.244,-2.857 -2.196,-6.195 -2.196,-9.908 0,-0.478 0.289,-0.861 0.67,-1.045 0.381,-0.197 0.855,-0.289 1.236,0 0.952,0.567 17.812,9.713 26.196,21.717 l 8.759,-8.668 C 79.161,96.4 79.541,95.73 79.641,94.969 86.592,47.438 3.62,1.898 0,0"
             style="fill:#f6ab1b;fill-opacity:1;fill-rule:nonzero;stroke:none"
             id="path64" /></g><g
           id="g66"
           transform="translate(675.101,752.7226)"><path
             d="m 0,0 c -5.964,0.582 -36.171,1.329 -45.59,-41.301 -0.672,-3.022 -3.652,-4.926 -6.674,-4.254 -1.082,0.232 -2.016,0.765 -2.747,1.495 -1.306,1.306 -1.936,3.235 -1.51,5.175 C -45.064,12.971 -6.522,11.887 1.091,11.137 4.164,10.842 6.415,8.1 6.108,5.026 5.807,1.95 3.076,-0.309 0,0"
             style="fill:#ffffff;fill-opacity:1;fill-rule:nonzero;stroke:none"
             id="path68" /></g><g
           id="g70"
           transform="translate(830.8354,564.8115)"><path
             d="m 0,0 -27.774,27.774 c -1.684,1.684 -4.415,1.681 -6.101,-0.005 -1.685,-1.686 -1.689,-4.416 -0.005,-6.1 L -6.104,-6.106 c 1.684,-1.685 4.415,-1.681 6.1,0.005 C 1.682,-4.415 1.686,-1.685 0,0"
             style="fill:#f6ab1b;fill-opacity:1;fill-rule:nonzero;stroke:none"
             id="path72" /></g><g
           id="g74"
           transform="translate(830.8354,564.8115)"><path
             d="m 0,0 -27.774,27.774 c -1.684,1.684 -4.415,1.681 -6.101,-0.005 -1.685,-1.686 -1.689,-4.416 -0.005,-6.1 L -6.104,-6.106 c 1.684,-1.685 4.415,-1.681 6.1,0.005 C 1.682,-4.415 1.686,-1.685 0,0 Z"
             style="fill:none;stroke:#f6ab1b;stroke-width:10;stroke-linecap:butt;stroke-linejoin:miter;stroke-miterlimit:10;stroke-dasharray:none;stroke-opacity:1"
             id="path76" /></g><g
           id="g78"
           transform="translate(834.4048,641.8379)"><path
             d="m 0,0 c 0.519,-0.52 1.182,-0.915 1.944,-1.118 l 37.991,-10.039 c 2.302,-0.607 4.665,0.767 5.276,3.071 0.61,2.304 -0.762,4.666 -3.063,5.273 L 4.158,7.226 C 1.856,7.833 -0.507,6.46 -1.119,4.156 -1.527,2.615 -1.048,1.047 0,0"
             style="fill:#f6ab1b;fill-opacity:1;fill-rule:nonzero;stroke:none"
             id="path80" /></g><g
           id="g82"
           transform="translate(834.4048,641.8379)"><path
             d="m 0,0 c 0.519,-0.52 1.182,-0.915 1.944,-1.118 l 37.991,-10.039 c 2.302,-0.607 4.665,0.767 5.276,3.071 0.61,2.304 -0.762,4.666 -3.063,5.273 L 4.158,7.226 C 1.856,7.833 -0.507,6.46 -1.119,4.156 -1.527,2.615 -1.048,1.047 0,0 Z"
             style="fill:none;stroke:#f6ab1b;stroke-width:10;stroke-linecap:butt;stroke-linejoin:miter;stroke-miterlimit:10;stroke-dasharray:none;stroke-opacity:1"
             id="path84" /></g><g
           id="g86"
           transform="translate(837.728,721.1108)"><path
             d="m 0,0 c 0.203,-0.748 0.593,-1.398 1.106,-1.911 1.058,-1.058 2.641,-1.535 4.19,-1.111 L 43.222,7.341 c 2.3,0.628 3.657,3.002 3.032,5.298 -0.626,2.298 -2.996,3.654 -5.296,3.025 L 3.03,5.301 C 0.731,4.671 -0.626,2.299 0,0"
             style="fill:#f6ab1b;fill-opacity:1;fill-rule:nonzero;stroke:none"
             id="path88" /></g><g
           id="g90"
           transform="translate(837.728,721.1108)"><path
             d="m 0,0 c 0.203,-0.748 0.593,-1.398 1.106,-1.911 1.058,-1.058 2.641,-1.535 4.19,-1.111 L 43.222,7.341 c 2.3,0.628 3.657,3.002 3.032,5.298 -0.626,2.298 -2.996,3.654 -5.296,3.025 L 3.03,5.301 C 0.731,4.671 -0.626,2.299 0,0 Z"
             style="fill:none;stroke:#f6ab1b;stroke-width:10;stroke-linecap:butt;stroke-linejoin:miter;stroke-miterlimit:10;stroke-dasharray:none;stroke-opacity:1"
             id="path92" /></g><g
           id="g94"
           transform="translate(658.8266,834.2261)"><path
             d="m 0,0 -10.039,37.99 c -0.61,2.302 -2.968,3.676 -5.274,3.063 -2.303,-0.611 -3.676,-2.975 -3.069,-5.276 l 10.039,-37.99 c 0.201,-0.763 0.596,-1.423 1.116,-1.945 1.051,-1.05 2.617,-1.527 4.157,-1.118 C -0.767,-4.664 0.608,-2.302 0,0"
             style="fill:#f6ab1b;fill-opacity:1;fill-rule:nonzero;stroke:none"
             id="path96" /></g><g
           id="g98"
           transform="translate(658.8266,834.2261)"><path
             d="m 0,0 -10.039,37.99 c -0.61,2.302 -2.968,3.676 -5.274,3.063 -2.303,-0.611 -3.676,-2.975 -3.069,-5.276 l 10.039,-37.99 c 0.201,-0.763 0.596,-1.423 1.116,-1.945 1.051,-1.05 2.617,-1.527 4.157,-1.118 C -0.767,-4.664 0.608,-2.302 0,0 Z"
             style="fill:none;stroke:#f6ab1b;stroke-width:10;stroke-linecap:butt;stroke-linejoin:miter;stroke-miterlimit:10;stroke-dasharray:none;stroke-opacity:1"
             id="path100" /></g><g
           id="g102"
           transform="translate(761.4643,517.8047)"><path
             d="m 0,0 -10.04,37.991 c -0.609,2.3 -2.971,3.676 -5.273,3.064 -2.304,-0.612 -3.676,-2.975 -3.07,-5.277 L -8.344,-2.213 c 0.203,-0.763 0.595,-1.421 1.117,-1.943 1.05,-1.05 2.616,-1.529 4.157,-1.119 C -0.767,-4.664 0.607,-2.302 0,0"
             style="fill:#f6ab1b;fill-opacity:1;fill-rule:nonzero;stroke:none"
             id="path104" /></g><g
           id="g106"
           transform="translate(761.4643,517.8047)"><path
             d="m 0,0 -10.04,37.991 c -0.609,2.3 -2.971,3.676 -5.273,3.064 -2.304,-0.612 -3.676,-2.975 -3.07,-5.277 L -8.344,-2.213 c 0.203,-0.763 0.595,-1.421 1.117,-1.943 1.05,-1.05 2.616,-1.529 4.157,-1.119 C -0.767,-4.664 0.607,-2.302 0,0 Z"
             style="fill:none;stroke:#f6ab1b;stroke-width:10;stroke-linecap:butt;stroke-linejoin:miter;stroke-miterlimit:10;stroke-dasharray:none;stroke-opacity:1"
             id="path108" /></g><g
           id="g110"
           transform="translate(560.1323,741.6606)"><path
             d="m 0,0 -37.989,10.04 c -2.303,0.608 -4.666,-0.765 -5.277,-3.069 -0.41,-1.541 0.069,-3.108 1.119,-4.158 0.521,-0.52 1.181,-0.913 1.943,-1.116 L -2.213,-8.342 C 0.089,-8.95 2.452,-7.576 3.063,-5.272 3.675,-2.971 2.304,-0.608 0,0"
             style="fill:#f6ab1b;fill-opacity:1;fill-rule:nonzero;stroke:none"
             id="path112" /></g><g
           id="g114"
           transform="translate(560.1323,741.6606)"><path
             d="m 0,0 -37.989,10.04 c -2.303,0.608 -4.666,-0.765 -5.277,-3.069 -0.41,-1.541 0.069,-3.108 1.119,-4.158 0.521,-0.52 1.181,-0.913 1.943,-1.116 L -2.213,-8.342 C 0.089,-8.95 2.452,-7.576 3.063,-5.272 3.675,-2.971 2.304,-0.608 0,0 Z"
             style="fill:none;stroke:#f6ab1b;stroke-width:10;stroke-linecap:butt;stroke-linejoin:miter;stroke-miterlimit:10;stroke-dasharray:none;stroke-opacity:1"
             id="path116" /></g><g
           id="g118"
           transform="translate(727.8491,838.687)"><path
             d="m 0,0 c -0.421,-1.549 0.055,-3.131 1.112,-4.189 0.514,-0.513 1.163,-0.902 1.914,-1.106 2.299,-0.627 4.67,0.73 5.299,3.03 l 10.364,37.928 c 0.628,2.298 -0.728,4.67 -3.023,5.293 -2.3,0.628 -4.671,-0.73 -5.299,-3.031 z"
             style="fill:#f6ab1b;fill-opacity:1;fill-rule:nonzero;stroke:none"
             id="path120" /></g><g
           id="g122"
           transform="translate(727.8491,838.687)"><path
             d="m 0,0 c -0.421,-1.549 0.055,-3.131 1.112,-4.189 0.514,-0.513 1.163,-0.902 1.914,-1.106 2.299,-0.627 4.67,0.73 5.299,3.03 l 10.364,37.928 c 0.628,2.298 -0.728,4.67 -3.023,5.293 -2.3,0.628 -4.671,-0.73 -5.299,-3.031 z"
             style="fill:none;stroke:#f6ab1b;stroke-width:10;stroke-linecap:butt;stroke-linejoin:miter;stroke-miterlimit:10;stroke-dasharray:none;stroke-opacity:1"
             id="path124" /></g><g
           id="g126"
           transform="translate(797.771,788.4795)"><path
             d="m 0,0 c 1.685,-1.684 4.415,-1.68 6.1,0.004 l 27.812,27.812 c 1.684,1.685 1.688,4.414 0.004,6.098 -1.687,1.687 -4.416,1.684 -6.103,-0.001 L 0.004,6.101 C -1.682,4.417 -1.685,1.686 0,0"
             style="fill:#f6ab1b;fill-opacity:1;fill-rule:nonzero;stroke:none"
             id="path128" /></g><g
           id="g130"
           transform="translate(797.771,788.4795)"><path
             d="m 0,0 c 1.685,-1.684 4.415,-1.68 6.1,0.004 l 27.812,27.812 c 1.684,1.685 1.688,4.414 0.004,6.098 -1.687,1.687 -4.416,1.684 -6.103,-0.001 L 0.004,6.101 C -1.682,4.417 -1.685,1.686 0,0 Z"
             style="fill:none;stroke:#f6ab1b;stroke-width:10;stroke-linecap:butt;stroke-linejoin:miter;stroke-miterlimit:10;stroke-dasharray:none;stroke-opacity:1"
             id="path132" /></g><g
           id="g134"
           transform="translate(605.2358,784.3066)"><path
             d="m 0,0 c 1.686,1.686 1.687,4.418 0.004,6.101 l -27.776,27.777 c -1.684,1.683 -4.416,1.681 -6.102,-0.005 -1.685,-1.686 -1.687,-4.418 -0.003,-6.101 L -6.101,-0.004 C -4.419,-1.688 -1.686,-1.686 0,0"
             style="fill:#f6ab1b;fill-opacity:1;fill-rule:nonzero;stroke:none"
             id="path136" /></g><g
           id="g138"
           transform="translate(605.2358,784.3066)"><path
             d="m 0,0 c 1.686,1.686 1.687,4.418 0.004,6.101 l -27.776,27.777 c -1.684,1.683 -4.416,1.681 -6.102,-0.005 -1.685,-1.686 -1.687,-4.418 -0.003,-6.101 L -6.101,-0.004 C -4.419,-1.688 -1.686,-1.686 0,0 Z"
             style="fill:none;stroke:#f6ab1b;stroke-width:10;stroke-linecap:butt;stroke-linejoin:miter;stroke-miterlimit:10;stroke-dasharray:none;stroke-opacity:1"
             id="path140" /></g></g></g></g></svg>
